<?xml version="1.0" standalone="no"?>
<!DOCTYPE svg PUBLIC "-//W3C//DTD SVG 20010904//EN"
 "http://www.w3.org/TR/2001/REC-SVG-20010904/DTD/svg10.dtd">
<svg version="1.0" xmlns="http://www.w3.org/2000/svg"
 width="1024.000000pt" height="567.000000pt" viewBox="0 0 1024.000000 567.000000"
 preserveAspectRatio="xMidYMid meet">

<g transform="translate(0.000000,567.000000) scale(0.100000,-0.100000)"
fill="#000000" stroke="none">
<path d="M5182 5463 c-30 -56 -142 -313 -142 -324 0 -19 142 -272 155 -276 9
-3 59 77 132 213 l32 62 -48 108 c-92 206 -100 222 -110 228 -5 4 -14 -1 -19
-11z m73 -231 l48 -92 -47 -118 c-27 -64 -51 -122 -55 -129 -3 -7 -24 32 -45
85 -22 53 -45 111 -52 128 -13 30 -10 37 38 133 28 56 55 98 58 94 4 -4 29
-50 55 -101z"/>
<path d="M2603 5070 c-101 -24 -137 -112 -80 -193 24 -35 32 -30 12 9 -25 49
-19 82 23 124 29 30 49 40 86 45 107 16 306 -35 454 -116 334 -183 510 -484
488 -836 -7 -128 -61 -293 -95 -293 -11 0 -118 81 -315 239 -439 353 -611 472
-877 610 -206 106 -287 139 -434 177 -100 26 -126 28 -290 29 -172 0 -184 -1
-269 -29 -73 -24 -99 -38 -138 -76 -38 -36 -61 -50 -102 -59 -93 -21 -195 -98
-257 -194 -86 -132 -89 -336 -8 -515 68 -151 248 -342 452 -481 118 -80 312
-160 454 -187 74 -13 102 -14 177 -5 279 36 471 216 493 464 3 37 7 67 9 67 2
0 56 -31 120 -69 181 -109 396 -187 549 -200 147 -13 272 23 377 111 l46 39
109 -71 c204 -133 447 -243 643 -290 132 -32 377 -33 525 -2 144 31 213 68
317 173 l86 88 18 -27 c37 -58 143 -150 213 -185 117 -59 195 -72 431 -72 194
0 210 2 301 27 198 57 413 157 602 281 49 32 95 61 103 64 8 3 33 -12 57 -34
79 -73 195 -113 328 -113 152 0 385 81 605 212 l111 65 11 -91 c15 -118 54
-200 137 -282 71 -72 150 -115 266 -145 231 -60 520 27 806 242 95 72 241 218
291 292 75 109 120 227 128 341 14 187 -54 335 -202 437 -47 32 -114 59 -148
59 -11 0 -39 18 -61 41 -83 86 -206 122 -415 122 -242 0 -406 -46 -704 -198
-88 -45 -188 -99 -221 -120 -33 -21 -91 -59 -130 -83 -101 -66 -230 -163 -485
-368 -124 -99 -260 -206 -304 -239 l-79 -58 -18 24 c-52 68 -84 225 -76 369
21 389 281 699 697 830 101 32 270 35 313 6 53 -36 69 -93 42 -146 -9 -17 -11
-30 -6 -30 18 0 41 57 41 99 0 50 -37 96 -88 111 -123 34 -340 -13 -522 -112
-242 -132 -405 -334 -472 -586 -15 -59 -20 -110 -21 -217 -1 -151 11 -211 59
-308 19 -36 22 -52 14 -62 -25 -30 -275 -190 -381 -243 -216 -110 -438 -172
-614 -172 -94 0 -305 35 -359 58 -76 34 -168 105 -215 166 l-44 56 27 60 c54
127 54 269 -1 407 -28 69 -28 67 37 139 43 47 91 84 144 111 l38 20 62 -33
c125 -66 295 -125 401 -139 80 -10 95 -15 95 -29 0 -14 -58 -70 -82 -78 -7 -3
-11 -8 -8 -11 9 -10 96 52 110 78 12 23 19 25 84 25 228 0 414 98 493 259 23
46 28 69 28 131 0 64 -5 85 -32 143 -83 174 -271 266 -523 254 -267 -13 -507
-97 -760 -267 -52 -34 -99 -64 -105 -67 -7 -2 -61 28 -121 67 -132 87 -319
179 -434 213 -249 75 -497 74 -647 -2 -126 -63 -224 -187 -239 -302 -8 -58 16
-146 58 -212 84 -131 260 -216 450 -217 57 0 69 -3 78 -20 10 -18 91 -80 105
-80 4 0 -15 20 -42 44 -26 24 -46 46 -43 49 3 3 45 11 94 17 114 16 275 68
393 127 l92 47 37 -20 c52 -27 159 -128 174 -163 10 -26 9 -38 -14 -94 -36
-91 -49 -188 -37 -269 12 -70 35 -143 52 -164 14 -18 -10 -55 -85 -129 -106
-105 -222 -146 -448 -161 -296 -19 -577 75 -935 313 -79 52 -143 99 -143 104
0 5 13 35 29 67 43 87 55 152 54 297 -2 165 -27 276 -95 409 -57 113 -193 261
-308 337 -199 131 -454 203 -597 169z m1876 -146 c157 -40 321 -127 568 -300
23 -16 42 -34 43 -39 0 -10 -160 -128 -207 -153 -17 -9 -35 -9 -79 3 -110 28
-275 15 -356 -28 -77 -41 -138 -116 -138 -169 0 -28 0 -28 -68 -28 -84 0 -208
31 -284 72 -112 60 -196 173 -206 279 -4 48 17 131 46 179 47 76 158 159 256
190 111 35 272 33 425 -6z m1711 25 c228 -36 393 -190 393 -369 0 -108 -83
-229 -203 -297 -73 -41 -204 -73 -302 -73 -75 0 -78 1 -78 23 0 38 -56 115
-106 147 -75 47 -138 64 -244 63 -52 0 -114 -5 -138 -12 -49 -14 -41 -17 -174
75 -108 75 -108 75 -51 116 237 172 386 251 558 300 126 35 239 44 345 27z
m-4385 -120 c141 -27 256 -70 435 -162 266 -135 413 -245 896 -662 77 -66 178
-149 226 -185 48 -36 88 -70 88 -76 1 -30 -121 -106 -206 -128 -34 -9 -92 -16
-129 -16 -168 0 -439 110 -671 272 -65 45 -73 55 -84 97 -52 207 -257 383
-462 395 -50 3 -62 9 -115 53 -80 66 -204 152 -283 196 -83 46 -236 97 -289
97 -54 0 -54 20 1 60 114 83 346 106 593 59z m7093 6 c98 -17 189 -55 228 -96
15 -16 26 -29 23 -29 -194 -17 -329 -78 -561 -253 -122 -93 -124 -94 -193
-100 -190 -18 -388 -189 -440 -381 -16 -59 -19 -62 -93 -112 -196 -132 -346
-204 -522 -249 -148 -39 -260 -29 -373 33 -53 29 -107 74 -107 90 0 5 51 48
114 96 63 47 174 139 248 204 415 366 576 484 851 625 189 98 303 138 457 162
58 9 112 18 120 19 41 9 174 4 248 -9z m-7617 -199 c42 -13 105 -37 141 -54
62 -30 235 -148 308 -210 l34 -29 -27 -32 c-20 -24 -27 -43 -27 -74 0 -46 27
-108 49 -115 10 -3 8 6 -7 30 -32 52 -29 107 8 143 33 32 24 36 125 -50 100
-85 317 -257 398 -315 l76 -55 0 -55 c0 -188 -99 -340 -277 -427 -196 -94
-422 -75 -683 58 -216 111 -454 331 -539 499 -57 113 -75 185 -75 305 0 104 2
114 32 176 42 85 101 142 189 185 88 42 101 42 109 4 7 -31 50 -90 66 -90 4 0
-3 16 -16 36 -14 20 -25 50 -25 65 0 26 3 29 33 29 17 0 66 -11 108 -24z
m7889 -11 c0 -30 -24 -81 -42 -89 -7 -3 -4 -5 7 -3 13 1 28 20 45 55 24 50 27
53 55 47 53 -10 133 -55 180 -101 154 -149 151 -424 -8 -660 -84 -125 -265
-294 -407 -381 -68 -41 -185 -96 -270 -125 -103 -36 -261 -48 -362 -28 -161
31 -306 137 -373 273 -31 62 -37 86 -41 162 l-6 90 124 92 c67 50 194 150 281
222 87 72 165 131 172 131 21 0 55 -55 55 -89 0 -18 -7 -48 -15 -68 -21 -49
-19 -52 9 -14 45 61 43 114 -8 169 l-21 24 41 36 c168 150 417 279 542 281 39
1 42 -1 42 -24z m-3893 -162 c56 -38 103 -70 103 -73 0 -3 -20 -17 -44 -33
-48 -30 -120 -96 -155 -142 l-23 -30 -22 29 c-33 47 -96 106 -141 135 -22 14
-41 30 -41 35 1 11 196 146 211 146 5 0 55 -30 112 -67z m-518 -37 c36 -6 66
-16 68 -21 4 -14 -122 -86 -217 -123 -63 -25 -145 -47 -247 -68 -30 -6 -37 10
-23 52 33 100 165 171 315 172 22 0 69 -5 104 -12z m1061 -26 c63 -25 125 -79
146 -129 8 -18 14 -37 14 -42 0 -44 -369 84 -460 158 l-25 21 45 11 c70 16
215 6 280 -19z m-3795 -83 c111 -46 197 -119 263 -222 29 -45 65 -135 58 -142
-6 -7 -127 89 -266 212 -63 55 -134 116 -157 134 -23 19 -40 38 -37 43 8 13
79 0 139 -25z m6358 -26 c-80 -75 -415 -353 -419 -348 -7 7 25 89 53 137 36
62 118 146 178 185 61 39 158 74 205 74 l35 0 -52 -48z m-3187 -240 c25 -88
29 -186 9 -261 -18 -71 -41 -120 -55 -120 -15 0 -49 105 -56 173 -8 76 8 181
38 250 19 45 23 48 34 32 8 -10 21 -43 30 -74z"/>
<path d="M3420 3159 c-1192 -8 -2328 -25 -2430 -38 -162 -20 2966 -44 4835
-38 1691 6 3402 26 3305 39 -104 14 -1150 28 -2710 38 -861 5 -1621 9 -1690 8
-69 -1 -658 -5 -1310 -9z"/>
<path d="M1028 2915 c-167 -42 -299 -165 -371 -345 -78 -197 -66 -480 30 -662
91 -174 263 -272 478 -272 90 1 108 4 177 33 42 18 95 46 117 62 43 31 82 37
99 17 6 -7 13 -30 17 -50 16 -86 25 -26 25 167 0 176 -2 205 -15 205 -10 0
-15 -10 -15 -32 0 -52 -35 -173 -64 -221 -27 -48 -79 -98 -124 -121 -16 -8
-66 -22 -112 -32 -71 -14 -94 -15 -152 -4 -152 27 -256 137 -320 340 -21 69
-23 93 -23 280 0 183 2 213 23 283 47 162 133 283 235 328 43 19 68 23 142 22
205 -2 336 -108 380 -306 12 -55 24 -87 32 -87 10 0 13 41 13 195 0 185 -10
246 -25 156 -3 -22 -15 -47 -26 -57 -23 -21 -11 -25 -134 50 -32 20 -75 41
-95 47 -59 18 -228 20 -292 4z"/>
<path d="M3773 2920 c-100 -15 -189 -76 -230 -158 -14 -28 -18 -60 -18 -137 0
-92 2 -104 30 -153 40 -73 107 -132 264 -231 152 -96 240 -173 270 -235 24
-48 28 -136 10 -201 -16 -58 -81 -119 -148 -139 -67 -20 -100 -20 -169 -2 -90
24 -138 66 -183 161 -31 66 -59 164 -59 207 0 15 -4 28 -9 28 -10 0 -25 -294
-19 -375 l3 -50 20 40 c27 53 51 55 139 11 119 -61 231 -69 361 -25 90 29 147
76 184 150 28 55 31 72 31 148 0 102 -24 163 -90 235 -41 44 -81 73 -318 226
-166 107 -205 159 -206 270 -1 137 87 220 233 220 140 0 238 -95 279 -272 10
-41 21 -68 29 -68 10 0 13 39 13 175 0 113 -4 175 -10 175 -6 0 -13 -13 -16
-29 -4 -17 -14 -37 -24 -46 -16 -15 -24 -13 -106 29 -97 49 -163 61 -261 46z"/>
<path d="M1820 2899 c0 -4 17 -10 38 -14 54 -10 80 -30 92 -72 8 -26 10 -200
8 -555 l-3 -518 -26 -26 c-16 -16 -41 -28 -67 -31 -90 -12 -33 -18 173 -18
118 0 215 3 215 8 0 4 -11 7 -25 7 -43 0 -94 27 -105 55 -6 16 -10 228 -10
551 0 606 -4 575 85 595 30 7 53 14 51 17 -7 7 -426 8 -426 1z"/>
<path d="M2424 2899 c-2 -4 12 -10 32 -14 20 -3 46 -11 59 -17 50 -23 50 -23
50 -589 0 -521 0 -528 -21 -556 -14 -19 -35 -31 -67 -38 -25 -5 -48 -13 -52
-17 -4 -4 197 -6 447 -5 l453 2 -2 35 c-1 19 -3 99 -4 178 -2 78 -6 142 -11
142 -4 0 -8 -2 -8 -4 0 -2 -7 -43 -15 -90 -18 -100 -41 -152 -84 -189 -53 -44
-93 -52 -269 -52 l-164 0 -23 27 c-15 18 -26 46 -30 80 -3 29 -5 271 -3 538 3
556 -1 528 88 551 27 7 50 15 50 18 0 8 -421 7 -426 0z"/>
<path d="M4444 2898 c-2 -3 14 -9 37 -13 22 -4 52 -17 67 -30 l27 -23 3 -521
c2 -340 -1 -535 -8 -560 -11 -42 -54 -71 -104 -71 -14 0 -26 -3 -26 -7 0 -12
555 -14 627 -3 117 19 228 91 272 178 73 144 30 312 -99 390 -54 32 -117 54
-192 67 -40 6 -50 22 -20 31 99 31 188 98 224 169 29 56 36 162 14 219 -31 81
-107 141 -212 165 -54 13 -603 21 -610 9z m526 -24 c68 -20 123 -73 141 -134
7 -25 13 -88 12 -140 0 -78 -5 -105 -25 -151 -44 -97 -105 -129 -260 -137
l-108 -5 0 248 c0 272 6 304 58 324 42 15 123 13 182 -5z m32 -585 c66 -14 94
-29 134 -68 51 -50 67 -96 72 -197 6 -126 -13 -190 -76 -252 -30 -30 -67 -53
-98 -64 -69 -24 -179 -33 -231 -19 -71 19 -73 29 -73 341 l0 270 110 0 c60 0
133 -5 162 -11z"/>
<path d="M5440 2893 c0 -7 6 -13 14 -13 30 0 94 -109 395 -671 l51 -96 0 -176
c0 -97 -4 -187 -10 -202 -11 -28 -62 -55 -105 -55 -14 0 -25 -3 -25 -7 0 -5
97 -8 215 -8 118 0 215 3 215 8 0 4 -11 7 -24 7 -12 0 -36 5 -52 10 -55 19
-59 35 -62 267 l-3 212 156 308 c154 302 205 385 246 398 49 16 3 25 -138 28
-148 3 -194 -4 -115 -18 93 -15 126 -66 102 -156 -11 -39 -251 -533 -269 -552
-11 -12 -20 3 -111 178 -45 88 -111 214 -145 280 -35 66 -66 135 -70 153 -10
47 14 79 70 93 25 6 45 14 45 18 0 3 -85 6 -190 6 -145 0 -190 -3 -190 -12z"/>
<path d="M6574 2899 c-2 -3 21 -12 52 -18 95 -22 89 16 89 -603 l0 -538 -26
-26 c-16 -16 -41 -28 -67 -31 -90 -12 -33 -18 168 -18 202 0 258 6 168 18 -90
12 -102 64 -96 417 l3 195 39 -2 c76 -5 104 -35 281 -302 91 -137 165 -256
165 -264 0 -20 -33 -47 -58 -47 -12 0 -22 -4 -22 -8 0 -5 83 -8 185 -8 102 1
185 4 185 7 0 3 -18 14 -39 24 -44 19 -97 70 -138 132 -27 40 -141 202 -206
293 -191 267 -181 250 -166 275 8 13 48 67 89 120 231 296 263 330 346 359 21
7 39 17 41 22 2 7 -283 12 -322 5 -5 -1 12 -10 40 -19 108 -37 88 -98 -117
-357 -126 -159 -156 -183 -249 -204 -32 -7 -46 -7 -51 2 -9 14 -10 345 -2 438
8 83 25 105 94 123 30 8 53 15 50 16 -20 5 -433 4 -436 -1z"/>
<path d="M7750 2900 c0 -3 23 -12 50 -19 89 -23 85 7 88 -571 3 -525 0 -570
-38 -605 -10 -9 -37 -19 -59 -22 -115 -16 2 -22 410 -21 l452 1 -7 75 c-3 41
-6 117 -6 169 0 53 -4 92 -9 89 -5 -3 -14 -35 -20 -72 -15 -86 -51 -164 -87
-190 -62 -44 -91 -49 -266 -49 -232 0 -212 -30 -216 321 l-3 276 95 -4 c76 -2
100 -7 122 -24 47 -35 64 -66 77 -144 6 -41 16 -74 21 -72 5 1 7 39 5 85 -1
45 -3 155 -4 245 0 171 -11 204 -30 91 -13 -75 -24 -98 -66 -133 -28 -24 -38
-26 -125 -26 l-94 0 0 255 c0 276 5 306 52 319 13 3 93 6 178 6 129 0 162 -3
196 -19 69 -31 94 -77 110 -198 4 -32 12 -53 19 -53 9 0 13 37 14 148 l1 147
-430 1 c-236 0 -430 -2 -430 -6z"/>
<path d="M8833 2898 c-2 -5 5 -8 16 -8 38 0 98 -31 110 -56 15 -33 16 -1076 1
-1105 -13 -24 -61 -49 -94 -49 -14 0 -27 -4 -31 -9 -3 -6 172 -9 445 -9 l450
1 0 178 c0 107 -4 179 -10 179 -5 0 -12 -17 -15 -37 -22 -142 -46 -205 -94
-246 -53 -44 -93 -52 -268 -52 -188 0 -200 5 -214 92 -10 63 -10 954 0 1017
10 58 32 80 90 90 23 3 41 10 41 14 0 9 -421 9 -427 0z"/>
<path d="M3804 1359 c-3 -5 2 -9 10 -9 8 0 18 -5 21 -10 5 -8 8 -237 5 -358 0
-7 -10 -17 -22 -22 -18 -7 -9 -9 37 -9 52 1 56 2 33 11 l-28 10 0 169 c0 93 2
169 3 169 2 0 58 -81 123 -180 65 -99 122 -180 127 -180 4 0 7 85 7 190 0 179
1 191 20 202 30 19 25 23 -27 22 -62 -2 -62 -2 -33 -17 25 -12 25 -15 28 -150
1 -75 -1 -137 -5 -137 -4 0 -52 68 -105 150 -86 133 -100 150 -125 151 -15 0
-36 2 -45 4 -10 2 -20 -1 -24 -6z"/>
<path d="M4831 1362 l-24 -4 24 -12 c24 -11 24 -14 27 -171 3 -182 0 -202 -31
-215 -16 -7 -7 -9 38 -9 46 0 55 2 37 9 -12 5 -25 15 -27 23 -3 7 -4 85 -3
172 l3 160 117 -177 c65 -97 122 -180 128 -183 11 -7 11 5 10 222 -1 131 1
144 20 163 11 11 20 22 20 24 0 7 -89 1 -96 -7 -4 -4 2 -7 14 -7 29 0 33 -22
30 -170 l-3 -125 -99 150 c-54 83 -99 151 -100 152 -4 4 -65 8 -85 5z"/>
<path d="M5373 1362 c-21 -3 -23 -9 -23 -60 0 -41 3 -53 10 -42 5 8 10 23 10
33 0 29 37 57 75 57 l35 0 -2 -192 -3 -192 -25 -7 c-14 -4 14 -7 65 -7 50 0
81 3 70 5 -44 11 -45 17 -45 209 l0 184 39 0 c46 0 69 -19 78 -63 5 -27 7 -28
14 -12 10 26 11 85 2 86 -26 3 -282 4 -300 1z"/>
<path d="M5840 1359 c0 -4 9 -9 20 -12 19 -5 20 -14 20 -191 0 -184 0 -187
-22 -196 -15 -6 28 -9 130 -9 l152 -1 0 56 c0 60 -14 65 -24 9 -9 -44 -30 -55
-106 -55 -73 0 -76 5 -72 114 4 76 4 76 31 76 30 0 61 -27 61 -53 0 -9 5 -17
11 -17 7 0 9 9 5 23 -3 12 -6 47 -6 77 l0 55 -18 -35 c-13 -27 -24 -36 -49
-38 l-31 -3 -4 64 c-1 36 -1 78 2 93 5 28 7 29 70 32 57 3 67 0 82 -19 10 -11
18 -30 18 -40 0 -10 5 -19 10 -19 6 0 10 20 10 45 0 52 16 48 -172 49 -65 1
-118 -2 -118 -5z"/>
<path d="M6379 1355 c-37 -20 -54 -67 -43 -113 7 -29 23 -47 74 -84 36 -26 77
-59 93 -73 43 -41 34 -100 -21 -129 -34 -19 -12 -20 32 -2 44 18 66 51 66 98
0 47 -28 80 -125 146 -72 49 -83 68 -70 119 3 15 18 30 38 38 30 13 30 14 7
14 -14 0 -37 -6 -51 -14z"/>
<path d="M4409 1173 c-41 -103 -83 -195 -93 -205 -19 -18 -18 -18 40 -17 51 0
55 2 32 11 -34 12 -36 35 -8 96 l19 42 69 0 69 0 22 -51 c27 -65 26 -77 -1
-89 -17 -6 -4 -9 51 -9 71 -1 73 0 53 17 -19 15 -45 77 -139 325 -14 37 -29
67 -33 67 -4 0 -40 -84 -81 -187z m94 23 c15 -40 27 -76 27 -79 0 -4 -27 -7
-60 -7 -69 0 -70 3 -42 77 11 26 22 56 25 66 11 30 21 19 50 -57z"/>
<path d="M6493 1349 c21 -12 47 -61 47 -89 0 -11 5 -20 10 -20 6 0 10 27 10
61 0 52 -2 60 -14 50 -11 -9 -20 -9 -35 -2 -25 14 -42 14 -18 0z"/>
<path d="M6330 1009 c0 -52 2 -60 14 -50 11 9 20 9 35 2 11 -6 26 -11 33 -10
7 0 4 5 -8 10 -23 12 -54 59 -54 82 0 9 -4 19 -10 22 -6 4 -10 -17 -10 -56z"/>
<path d="M3565 718 c-814 -3 -1645 -11 -1846 -17 -201 -6 -447 -12 -545 -12
-147 -1 -167 -3 -109 -10 157 -18 2300 -39 4010 -39 2344 0 4679 31 3780 51
-1283 27 -3142 37 -5290 27z"/>
</g>
</svg>
