<?xml version="1.0" standalone="no"?>
<!DOCTYPE svg PUBLIC "-//W3C//DTD SVG 20010904//EN"
 "http://www.w3.org/TR/2001/REC-SVG-20010904/DTD/svg10.dtd">
<svg version="1.0" xmlns="http://www.w3.org/2000/svg"
 width="1280.000000pt" height="640.000000pt" viewBox="0 0 1280.000000 640.000000"
 preserveAspectRatio="xMidYMid meet">
<metadata>
Created by potrace 1.15, written by Peter Selinger 2001-2017
</metadata>
<g transform="translate(0.000000,640.000000) scale(0.100000,-0.100000)"
fill="#000000" stroke="none">
<path d="M3840 5498 c-82 -23 -129 -90 -130 -185 0 -151 125 -294 291 -332 91
-21 251 -7 399 35 18 5 11 -4 -27 -34 -28 -23 -67 -62 -86 -87 -34 -43 -141
-135 -159 -135 -5 0 -2 -13 7 -30 16 -31 18 -99 5 -140 -6 -16 -7 1 -3 45 5
66 3 73 -21 102 -15 18 -37 35 -49 39 -12 3 -35 18 -50 33 -24 22 -36 26 -79
24 -37 -2 -58 -9 -75 -24 -28 -27 -29 -41 -3 -64 15 -14 17 -21 9 -32 -28 -33
19 -178 71 -215 30 -22 86 -31 111 -17 22 11 37 -7 19 -24 -9 -9 -14 -9 -17
-1 -2 6 -14 9 -28 7 -35 -7 -93 15 -112 43 -17 27 -57 32 -82 10 -67 -59 -91
-87 -91 -105 0 -12 4 -21 9 -21 5 0 17 -8 27 -17 56 -57 256 -78 285 -31 4 7
11 9 15 5 4 -4 -2 -25 -14 -46 -29 -52 -28 -82 6 -114 24 -23 36 -27 77 -25
47 3 49 2 57 -29 5 -18 14 -33 20 -33 6 0 20 -7 30 -17 24 -21 65 -4 74 31 3
13 12 27 20 30 19 7 19 106 -1 132 -8 10 -15 30 -15 43 0 18 4 22 18 15 19 -8
36 -9 133 -3 37 2 73 9 80 16 8 6 23 13 34 15 16 3 20 11 19 39 -1 42 -34 118
-50 119 -6 0 -17 7 -24 15 -7 8 -19 15 -26 15 -8 0 -22 8 -32 18 -13 13 -35
19 -82 20 -35 1 -65 4 -67 6 -2 2 3 21 12 42 8 20 13 45 10 54 -3 9 2 31 11
49 21 42 6 100 -32 130 l-26 21 60 58 c105 101 227 152 366 152 104 0 190 -22
301 -76 244 -118 452 -367 539 -643 99 -315 8 -641 -252 -900 -83 -82 -257
-210 -269 -198 -2 3 17 18 43 33 25 16 66 46 90 67 42 37 43 41 37 83 -5 39
-3 45 26 69 33 29 38 44 19 63 -8 8 -26 -5 -74 -57 -113 -122 -196 -224 -216
-267 -20 -40 -25 -43 -100 -64 -43 -13 -80 -21 -83 -18 -2 2 5 23 16 45 12 24
19 56 17 75 -3 29 -6 33 -33 33 -16 0 -34 6 -38 13 -6 9 -21 12 -45 8 -21 -4
-57 -9 -82 -12 -67 -7 -170 -63 -189 -102 -24 -48 -36 -33 -33 40 4 75 -9 96
-76 116 -32 10 -40 9 -62 -8 -52 -42 -71 -44 -101 -10 -17 18 -38 30 -53 30
-13 0 -31 3 -40 6 -9 3 -26 -5 -41 -20 -21 -21 -25 -32 -20 -56 4 -17 3 -30
-1 -30 -13 0 -229 111 -244 126 -12 12 -8 14 32 14 92 0 148 43 148 115 0 55
-19 80 -53 71 -37 -9 -52 -40 -37 -77 10 -23 10 -32 0 -44 -13 -16 -100 -45
-133 -45 -21 0 -156 80 -157 92 0 4 14 15 32 24 17 9 52 35 77 58 25 23 60 50
76 61 17 10 33 23 37 29 3 6 29 42 58 80 28 39 49 77 48 85 -2 9 -16 20 -32
26 -23 8 -30 6 -42 -9 -11 -15 -20 -17 -51 -12 -99 19 -118 18 -146 -8 -26
-24 -27 -29 -18 -63 24 -85 8 -177 -37 -217 -12 -10 -19 -22 -17 -27 9 -13
-49 -67 -75 -71 -21 -2 -12 -11 60 -56 106 -66 311 -170 409 -208 60 -23 78
-35 98 -66 13 -22 35 -44 48 -50 14 -6 25 -15 25 -19 0 -4 3 -14 6 -23 5 -13
-1 -16 -26 -16 -20 0 -44 -10 -62 -25 -16 -14 -38 -25 -48 -25 -10 0 -25 -9
-32 -19 -8 -11 -26 -23 -41 -26 -15 -4 -32 -17 -38 -29 -6 -11 -21 -28 -32
-37 -18 -15 -19 -20 -7 -48 7 -17 35 -50 63 -73 44 -38 55 -42 106 -44 31 0
68 -5 84 -9 19 -5 35 -2 52 9 13 9 32 16 42 16 10 0 33 9 51 20 l32 20 2 -23
c0 -12 0 -33 -1 -46 -1 -13 7 -37 19 -54 14 -18 20 -37 16 -50 -3 -11 3 -40
14 -64 23 -53 71 -85 120 -80 30 2 35 7 38 32 2 17 10 37 17 45 8 9 24 38 36
65 12 28 30 62 40 76 18 26 18 26 -7 39 -37 20 -113 190 -84 190 5 0 10 -9 10
-20 0 -11 13 -50 30 -86 35 -79 55 -89 191 -98 96 -7 97 -7 143 24 67 45 77
107 21 124 -27 8 -30 13 -30 49 0 37 -6 45 -80 115 -44 42 -75 73 -69 69 6 -4
53 2 104 14 51 11 94 18 96 16 2 -2 -5 -20 -16 -40 -26 -48 -25 -55 6 -83 50
-47 81 -22 69 53 -5 28 -4 34 4 23 6 -8 13 -34 17 -58 5 -34 3 -47 -12 -64
-17 -18 -19 -36 -18 -144 1 -118 2 -125 28 -158 31 -42 49 -45 70 -14 21 30
20 51 -4 98 -11 22 -20 42 -20 45 0 3 16 13 35 21 20 8 38 22 41 32 3 9 11 27
16 39 8 17 6 34 -12 77 -18 45 -31 60 -68 82 -42 25 -44 28 -27 40 10 8 21 14
25 14 3 0 20 -25 39 -56 48 -81 109 -140 156 -153 51 -14 121 -14 146 0 25 13
59 89 59 130 0 30 -43 99 -62 99 -5 0 -25 11 -44 24 -32 22 -38 22 -72 10 -54
-19 -113 -17 -142 6 -14 11 -20 20 -15 19 6 0 19 -6 29 -14 41 -31 124 -13
191 40 22 18 54 40 71 48 19 10 34 27 39 44 3 15 20 42 37 61 25 30 29 40 24
71 -4 20 -7 44 -8 54 -3 20 -3 20 -28 5 -38 -24 -31 2 24 84 62 95 108 194
138 307 18 62 21 104 21 231 0 139 -3 164 -27 245 -52 174 -123 300 -241 424
-184 195 -421 311 -634 311 -93 0 -152 -13 -247 -53 -34 -14 -108 -36 -165
-47 -301 -62 -521 30 -575 240 -34 135 31 230 159 230 56 0 128 -36 146 -74
16 -34 9 -53 -49 -130 -42 -55 -51 -93 -24 -103 41 -15 97 45 109 119 17 98
-29 176 -118 203 -57 17 -77 17 -127 3z m459 -945 c-13 -16 -25 -30 -27 -32
-1 -3 -7 0 -14 7 -8 8 -5 14 14 21 15 5 29 15 33 20 3 6 9 11 12 11 4 0 -4
-12 -18 -27z m20 -189 c13 -12 -8 -10 -29 2 l-25 15 25 -7 c14 -3 27 -8 29
-10z m201 -1255 c0 6 10 11 23 10 l22 0 -22 -9 c-12 -5 -24 -18 -28 -30 -6
-19 -9 -20 -21 -8 -19 19 -8 54 12 37 10 -8 14 -8 14 0z m-317 -31 c-17 -8
-29 -8 -45 0 -20 9 -18 11 22 11 40 0 42 -2 23 -11z m115 -157 c10 -6 9 -11
-4 -22 -9 -7 -20 -22 -25 -34 -8 -17 -9 -17 -4 5 2 14 5 33 5 43 0 19 8 21 28
8z"/>
<path d="M3574 5269 c-18 -20 -18 -21 0 -35 17 -12 22 -12 36 1 25 22 39 19
75 -20 25 -26 32 -29 28 -14 -3 11 -20 36 -38 55 -37 39 -73 44 -101 13z"/>
<path d="M6010 5220 c-137 -29 -255 -133 -334 -293 -81 -165 -117 -384 -81
-483 10 -27 21 -52 24 -56 3 -4 7 46 8 112 2 149 17 250 54 365 35 109 61 152
136 228 75 76 143 109 238 115 184 12 327 -71 376 -218 7 -18 7 -14 3 15 -13
90 -87 170 -185 199 -66 20 -183 27 -239 16z"/>
<path d="M4080 5115 c-18 -47 21 -88 95 -100 l40 -6 -45 23 c-42 21 -45 26
-45 63 0 49 -29 62 -45 20z"/>
<path d="M7693 5085 c-42 -18 -53 -42 -53 -113 0 -67 -9 -77 -65 -66 -29 5
-38 1 -75 -35 -40 -38 -42 -43 -47 -114 -5 -71 -4 -75 26 -117 17 -24 31 -49
31 -55 0 -14 -41 -28 -51 -17 -3 4 -12 52 -18 107 -7 55 -22 123 -32 152 -32
84 -136 162 -220 166 -34 1 -45 -4 -74 -36 -19 -20 -38 -37 -43 -37 -4 0 -16
-17 -25 -37 -20 -48 -13 -117 18 -158 12 -16 29 -44 38 -61 14 -28 22 -32 72
-38 82 -9 120 -29 150 -76 15 -23 24 -44 21 -47 -3 -3 -15 11 -27 31 -26 44
-62 64 -139 77 -44 7 -67 6 -100 -6 -23 -8 -70 -15 -105 -15 -57 0 -63 -2 -73
-26 -8 -16 -32 -34 -65 -48 -64 -29 -88 -54 -92 -98 -2 -18 -7 -42 -11 -52 -6
-17 -4 -18 19 -12 15 3 35 1 46 -6 15 -9 31 -9 73 0 51 12 164 24 333 36 55 5
75 3 65 -4 -8 -5 -35 -10 -60 -10 -61 -1 -154 -39 -158 -65 -2 -12 -32 -38
-74 -65 -39 -25 -106 -79 -149 -121 l-78 -77 -29 22 c-37 27 -122 115 -122
126 0 11 -59 70 -69 70 -21 0 24 -125 59 -165 10 -11 30 -59 44 -106 l26 -87
-24 -43 c-37 -66 -82 -205 -96 -292 -8 -47 -11 -126 -8 -202 l5 -125 -34 6
c-29 6 -38 1 -78 -37 -24 -24 -50 -49 -58 -56 -9 -7 -17 -44 -21 -109 -7 -89
-6 -99 13 -123 20 -25 71 -115 71 -126 0 -3 -18 -5 -39 -5 -44 0 -45 0 -56
120 -11 105 -35 210 -60 261 -44 86 -174 174 -274 186 -48 5 -50 4 -92 -39
-24 -25 -54 -51 -66 -57 -13 -6 -26 -24 -29 -39 -4 -15 -12 -34 -20 -42 -10
-12 -10 -25 2 -70 8 -30 14 -61 14 -69 0 -8 10 -25 22 -38 12 -13 34 -45 48
-71 20 -38 32 -48 60 -53 19 -4 63 -13 97 -19 81 -16 114 -38 147 -95 29 -53
30 -55 17 -55 -5 0 -21 20 -35 45 -33 56 -81 81 -179 96 -65 10 -81 9 -141
-10 -43 -13 -95 -21 -142 -21 -69 0 -74 -1 -86 -27 -15 -32 -71 -72 -110 -80
-16 -3 -44 -23 -63 -44 -29 -32 -35 -47 -35 -83 0 -25 -4 -48 -10 -51 -5 -3
-10 -12 -10 -20 0 -11 7 -11 37 -3 30 8 38 7 45 -6 10 -18 54 -21 92 -6 31 12
247 37 436 50 80 6 163 13 185 15 l40 4 -45 -15 c-25 -9 -91 -20 -146 -24 -56
-5 -110 -13 -120 -18 -11 -5 -35 -16 -55 -25 -31 -13 -37 -21 -43 -57 -11 -71
-30 -97 -74 -103 -86 -11 -127 -48 -99 -91 l17 -26 54 30 c29 17 59 30 68 30
17 0 148 53 333 135 127 56 271 148 259 166 -3 5 20 9 51 9 49 0 59 4 78 27
34 40 81 86 111 106 15 11 32 29 38 42 9 20 6 29 -16 56 -21 24 -24 34 -15 45
15 18 -29 39 -64 30 -30 -7 -67 -76 -67 -124 0 -17 -4 -34 -10 -37 -13 -8 -13
23 0 103 13 77 27 102 62 109 15 3 37 16 49 29 12 13 26 24 31 24 4 0 16 -17
27 -37 10 -21 39 -65 64 -99 24 -33 55 -90 67 -125 59 -168 146 -276 213 -264
17 3 27 0 27 -8 0 -19 101 -14 130 6 33 23 45 21 56 -5 8 -19 5 -27 -13 -45
l-24 -23 -11 25 c-6 13 -16 21 -22 18 -18 -12 -126 -9 -126 3 0 6 -10 9 -24 7
-31 -6 -98 37 -130 84 -24 34 -30 37 -81 40 -54 3 -56 2 -75 -30 -11 -18 -42
-46 -70 -62 -68 -39 -130 -118 -130 -163 0 -25 22 -43 62 -51 26 -5 33 -12 33
-30 0 -28 10 -34 90 -57 33 -9 75 -23 93 -31 75 -33 242 -38 331 -11 19 6 45
22 58 36 22 24 25 24 40 10 14 -15 12 -22 -31 -88 -26 -39 -50 -86 -53 -105
-7 -43 17 -91 73 -146 38 -37 50 -44 84 -43 22 1 51 9 64 18 21 13 31 14 63 3
34 -11 38 -16 45 -56 8 -46 29 -77 63 -92 11 -5 36 -21 55 -35 57 -41 124 -11
150 68 9 24 21 43 27 41 27 -9 43 40 43 137 0 112 -11 158 -45 190 -21 20 -23
29 -18 66 5 40 4 44 -28 63 -18 11 -46 23 -61 26 -26 6 -40 25 -18 25 26 0 91
-35 105 -57 18 -27 87 -62 123 -63 13 0 35 6 50 14 21 11 39 12 80 5 43 -8 57
-7 82 7 24 15 35 16 65 6 42 -12 71 -5 99 27 11 12 31 21 47 21 49 0 62 25 56
103 -4 43 -13 80 -26 100 -28 43 -39 67 -45 99 -5 22 -12 28 -34 29 -26 0 -26
1 -5 11 31 15 50 4 57 -34 3 -18 20 -53 36 -77 17 -24 30 -58 31 -75 0 -17 4
-40 8 -50 7 -17 11 -15 37 19 26 34 29 46 29 109 0 45 -7 89 -18 119 -10 26
-17 53 -14 60 2 6 13 -14 25 -46 32 -83 30 -176 -3 -234 -18 -30 -23 -48 -17
-59 7 -13 16 -9 58 26 42 37 97 97 106 118 2 4 19 19 38 33 25 19 52 59 93
141 31 63 57 122 57 131 0 21 -46 40 -76 33 -12 -3 -24 -14 -27 -25 -4 -18
-67 -37 -67 -19 0 4 7 8 14 8 8 0 27 11 42 25 24 22 36 25 78 23 47 -3 51 -5
54 -31 2 -18 -11 -53 -38 -103 -23 -41 -40 -78 -37 -80 3 -3 26 27 52 68 26
40 53 77 60 83 21 17 53 70 60 98 4 14 13 31 21 38 23 19 17 26 -27 33 -30 5
-46 3 -58 -8 -9 -8 -41 -24 -71 -35 l-55 -21 -23 26 -22 25 -71 -44 c-68 -43
-73 -44 -103 -32 -17 7 -52 16 -78 20 -46 7 -48 9 -64 57 -9 27 -23 52 -31 55
-7 3 -27 18 -42 33 -38 38 -105 48 -163 25 -24 -9 -66 -40 -94 -69 -55 -56
-74 -100 -74 -173 l0 -43 48 0 c47 0 50 1 67 39 11 25 28 44 47 52 34 14 164
7 197 -10 24 -13 67 -91 51 -91 -6 0 -16 14 -22 30 -12 37 -48 57 -115 66 -64
8 -116 -9 -143 -46 -25 -36 -25 -43 2 -55 30 -13 74 -78 57 -84 -7 -2 -15 2
-18 10 -2 8 -17 26 -32 42 -25 25 -35 28 -81 26 -29 -2 -70 3 -92 10 -47 16
-108 8 -149 -21 -16 -11 -49 -47 -72 -79 l-43 -59 -17 27 c-14 21 -15 27 -4
34 8 5 19 9 25 9 17 0 124 90 124 104 0 6 13 38 30 71 30 60 39 118 20 130
-17 10 -11 36 14 66 31 37 40 94 26 163 -15 72 -45 116 -98 143 -24 12 -49 26
-56 33 -11 8 -20 1 -42 -35 -16 -25 -37 -48 -47 -51 -10 -3 -48 -28 -85 -55
l-67 -50 49 46 c27 26 67 55 88 66 21 11 38 23 38 27 0 4 12 22 28 40 l27 33
40 -20 c22 -10 43 -17 47 -15 3 2 52 93 109 202 56 108 103 199 105 201 2 2
10 -2 18 -8 12 -10 17 -7 30 17 8 16 18 53 22 83 9 75 113 276 177 343 53 55
77 100 77 142 0 19 17 43 63 87 81 79 109 139 111 232 2 130 -64 199 -189 199
-115 0 -185 -65 -185 -171 0 -63 13 -99 48 -135 28 -30 51 -35 70 -16 19 19
15 32 -38 104 -27 38 -50 78 -50 91 0 31 45 80 86 93 50 17 139 8 172 -17 47
-34 64 -79 59 -158 -5 -83 -27 -132 -88 -193 -33 -32 -45 -39 -47 -27 -3 12
-13 7 -46 -23 -54 -50 -135 -68 -270 -59 -107 7 -298 56 -434 113 -7 3 97 104
107 104 6 0 18 11 26 24 15 23 15 27 -2 52 -10 15 -18 35 -18 43 0 10 -10 17
-27 19 -32 4 -56 -26 -65 -81 -3 -20 -10 -40 -15 -43 -5 -3 -6 9 -3 28 3 18 8
49 12 68 6 37 28 70 48 70 35 0 99 108 119 202 3 15 14 29 24 32 34 11 24 166
-12 179 -6 3 -26 -1 -43 -8z m-186 -681 c-3 -3 -12 -4 -19 -1 -8 3 -5 6 6 6
11 1 17 -2 13 -5z m75 -34 c134 -41 273 -164 334 -295 18 -38 36 -82 39 -96 6
-24 4 -26 -18 -22 -18 4 -35 -5 -66 -32 -42 -38 -169 -221 -279 -401 -59 -95
-182 -368 -185 -408 -1 -16 -67 -67 -102 -79 -5 -2 4 -26 20 -53 27 -45 29
-56 28 -142 -1 -96 -17 -187 -35 -198 -7 -4 -7 8 -2 37 5 24 9 96 9 159 0 109
-2 118 -25 146 -34 42 -85 77 -141 98 -26 10 -64 35 -85 57 -21 22 -48 39 -60
39 -12 0 -24 7 -28 15 -7 19 -36 19 -61 1 -11 -8 -34 -11 -59 -9 -55 6 -77 -4
-120 -56 -27 -32 -35 -49 -30 -65 10 -32 36 -63 63 -76 l24 -11 -21 -22 c-11
-12 -24 -34 -27 -49 l-7 -28 -18 23 c-9 12 -32 46 -50 75 l-32 52 26 65 c14
36 26 77 26 91 0 25 33 66 61 76 12 5 11 8 -3 24 -16 16 -16 18 -1 29 14 11
15 21 5 79 -6 37 -16 74 -23 82 -21 25 -66 17 -107 -20 l-37 -34 0 -88 c0 -56
-4 -89 -11 -91 -16 -5 -23 27 -30 132 -9 135 30 315 99 450 l20 40 34 -105
c21 -65 37 -141 43 -200 5 -52 18 -125 29 -161 22 -68 91 -186 115 -195 8 -3
26 2 41 12 25 16 27 16 55 -5 16 -11 35 -21 42 -21 7 0 30 -18 53 -39 22 -21
50 -42 62 -46 22 -6 23 -6 7 37 -31 85 -25 294 12 427 6 21 5 22 -14 12 -25
-13 -78 -116 -87 -171 -4 -22 -10 -40 -13 -40 -4 0 -17 48 -30 108 -13 59 -38
150 -55 202 l-32 95 29 0 c55 0 60 58 10 108 -20 21 -37 27 -68 27 -38 0 -44
4 -84 56 l-43 55 20 27 c11 15 40 47 65 72 43 41 47 43 59 26 13 -17 15 -17
48 3 19 11 41 21 49 21 31 0 362 151 407 185 53 41 68 42 155 15z m255 -82
c62 -18 104 -23 205 -23 l127 0 -95 -90 c-52 -49 -94 -98 -94 -107 0 -31 -14
-19 -48 40 -35 61 -96 131 -152 175 -42 33 -40 33 57 5z m-802 -51 c-6 -14
-55 -31 -55 -18 0 7 53 41 58 37 1 -2 0 -10 -3 -19z m1115 -1627 c0 -5 -6 -10
-14 -10 -8 0 -18 5 -21 10 -3 6 3 10 14 10 12 0 21 -4 21 -10z"/>
<path d="M7162 3478 c-25 -161 -25 -190 -2 -292 14 -60 26 -93 31 -85 4 8 10
95 14 194 6 152 5 186 -8 218 -9 20 -18 37 -20 37 -2 0 -9 -33 -15 -72z"/>
<path d="M6114 5001 c-93 -57 -118 -166 -60 -265 54 -93 198 -125 279 -63 37
28 97 136 96 171 0 14 -6 7 -15 -19 -20 -56 -72 -130 -105 -149 -52 -31 -164
-16 -219 30 -56 47 -64 165 -15 222 20 24 30 27 76 25 71 -3 97 18 63 51 -21
21 -62 20 -100 -3z"/>
<path d="M3813 4970 c-25 -10 -38 -48 -29 -84 6 -26 -9 -38 -41 -30 -31 8 -71
-38 -82 -93 -5 -30 -9 -38 -10 -21 -3 82 -83 168 -157 168 -27 0 -93 -58 -95
-83 -3 -33 5 -66 27 -103 22 -37 30 -42 72 -48 53 -7 73 -20 91 -56 11 -22 9
-21 -17 7 -36 39 -87 50 -154 34 -27 -6 -59 -11 -70 -11 -11 0 -33 -11 -50
-25 -16 -14 -35 -25 -43 -25 -19 0 -36 -25 -45 -65 -7 -31 -6 -36 7 -31 9 4
21 2 27 -4 8 -6 25 -6 47 0 32 8 261 31 291 29 24 -2 -37 -17 -73 -18 -61 -2
-94 -18 -105 -53 -6 -23 -18 -35 -41 -42 -40 -14 -47 -21 -40 -41 6 -13 10
-13 39 -1 18 8 80 34 138 58 58 24 124 58 147 76 24 17 51 32 61 32 29 0 105
75 98 97 -3 10 -5 22 -5 27 0 5 -7 13 -16 19 -21 11 -35 -2 -52 -46 l-12 -32
5 40 c5 30 16 48 45 73 27 24 43 49 55 88 10 29 21 54 25 54 21 0 16 110 -6
116 -6 2 -20 -1 -32 -6z m-113 -321 c0 -5 -9 -9 -20 -9 -16 0 -20 7 -20 33 l1
32 19 -24 c11 -13 20 -27 20 -32z"/>
<path d="M1421 4764 c-31 -39 -28 -99 5 -127 61 -51 66 -58 59 -85 -15 -66
-101 -161 -209 -234 -23 -16 -36 -28 -30 -28 29 0 159 62 218 104 152 108 186
252 86 357 -47 49 -97 54 -129 13z"/>
<path d="M1160 4603 c-16 -21 -21 -39 -19 -78 l3 -50 -34 -2 c-19 -1 -40 -2
-46 -2 -6 -1 -26 -15 -44 -32 -28 -27 -33 -40 -37 -93 -5 -54 -2 -66 21 -100
32 -48 33 -66 3 -66 -22 0 -24 5 -36 97 -6 53 -20 115 -30 138 -28 63 -128
133 -193 135 -21 0 -95 -69 -114 -105 -19 -36 -7 -92 32 -152 30 -45 39 -52
76 -58 72 -12 118 -35 134 -67 9 -16 13 -32 10 -35 -2 -3 -12 9 -20 25 -23 45
-88 67 -169 57 -34 -4 -88 -10 -119 -13 -45 -6 -61 -12 -78 -34 -12 -15 -35
-31 -52 -36 -38 -10 -64 -44 -71 -95 -5 -32 -3 -38 11 -36 9 1 25 -1 34 -6 10
-4 46 -2 80 3 35 6 119 16 188 22 69 6 140 12 159 15 24 3 31 1 24 -6 -6 -6
-46 -14 -89 -18 -102 -9 -136 -25 -145 -71 -8 -36 -31 -60 -60 -60 -28 0 -61
-33 -53 -53 4 -12 12 -16 23 -11 27 11 166 64 169 64 2 0 -12 -19 -31 -42
-210 -258 -323 -702 -288 -1132 7 -91 18 -163 28 -183 28 -59 114 -93 143 -58
10 13 9 36 -5 123 -23 142 -32 479 -15 609 14 114 59 300 88 366 19 43 24 47
89 67 71 23 213 37 256 26 40 -10 57 -33 57 -77 0 -51 13 -75 50 -94 39 -20
62 -19 94 6 32 25 35 83 7 144 -68 151 -273 152 -501 3 l-34 -23 43 80 c63
118 187 275 216 275 6 0 31 18 55 40 32 29 49 38 65 34 17 -4 37 9 89 59 53
51 84 71 145 95 106 42 200 67 349 93 194 34 508 30 670 -8 17 -4 22 -12 22
-38 0 -54 27 -180 50 -234 22 -50 74 -101 104 -101 9 0 16 -4 16 -9 0 -4 20
-11 46 -15 33 -4 52 -1 69 10 24 15 25 15 34 -7 7 -19 5 -27 -12 -41 -21 -16
-22 -16 -31 2 -5 11 -16 19 -25 18 -28 -3 -91 14 -91 24 0 6 -7 8 -15 4 -20
-7 -88 54 -105 93 -6 16 -19 30 -28 30 -10 0 -31 3 -49 7 -25 5 -33 2 -42 -13
-5 -11 -39 -34 -75 -52 -69 -34 -120 -87 -114 -118 2 -10 17 -24 35 -32 23
-10 32 -20 30 -35 -2 -16 11 -28 58 -51 33 -17 71 -38 85 -47 77 -50 285 -65
316 -23 13 17 16 18 24 5 13 -19 12 -27 0 -35 -6 -4 -29 -29 -50 -57 -52 -64
-53 -106 -8 -169 42 -59 45 -61 109 -55 74 7 99 -10 99 -65 0 -34 6 -45 48
-84 68 -64 128 -60 158 10 9 22 22 35 36 37 19 2 25 13 35 58 16 80 16 172 -1
196 -10 13 -13 33 -9 61 5 40 4 42 -37 68 -47 29 -48 45 -2 21 16 -8 39 -30
49 -49 25 -42 83 -71 124 -62 17 4 50 2 74 -5 32 -9 48 -9 64 -1 16 9 27 9 44
0 12 -7 35 -15 52 -19 26 -5 37 -19 81 -105 109 -207 162 -415 171 -660 6
-185 -14 -336 -65 -485 -28 -80 -30 -83 -40 -58 -14 35 -27 41 -54 27 -33 -17
-38 -28 -38 -85 0 -57 -12 -69 -57 -58 -19 5 -32 -1 -59 -27 -28 -27 -34 -40
-34 -75 0 -24 -4 -46 -10 -49 -6 -4 -10 5 -10 20 0 82 -88 181 -178 200 -29 6
-38 2 -75 -31 -23 -21 -48 -50 -55 -64 -7 -14 -19 -30 -25 -36 -12 -11 -80
-37 -127 -48 -14 -4 -40 -19 -58 -35 l-33 -29 32 -4 c25 -4 38 0 54 18 16 17
33 24 58 24 69 0 83 -21 51 -81 -18 -37 -30 -33 -13 4 18 39 6 57 -40 57 -31
0 -40 -4 -44 -21 -5 -20 -11 -21 -54 -16 -68 8 -124 -5 -155 -36 l-26 -26 18
-40 c46 -94 48 -177 6 -241 -18 -28 -21 -38 -11 -47 9 -9 24 -1 63 33 28 24
60 60 72 79 17 27 25 33 37 26 9 -5 29 -5 45 0 53 15 377 44 365 33 -3 -3 -37
-10 -75 -14 -94 -10 -123 -26 -136 -75 -8 -27 -18 -41 -31 -43 -43 -7 -75 -25
-75 -43 0 -27 16 -32 45 -13 14 9 28 14 31 12 9 -10 -189 -106 -294 -142 -216
-75 -395 -85 -560 -32 -64 21 -82 31 -78 42 10 26 -14 55 -61 76 -47 21 -52
35 -8 24 14 -4 44 -24 66 -46 53 -51 106 -67 150 -44 25 13 39 14 72 6 31 -8
47 -8 68 3 18 10 43 12 77 8 45 -5 53 -3 75 19 15 15 37 26 52 26 39 0 47 18
41 95 -4 53 -11 76 -30 102 -15 19 -26 40 -26 49 0 29 -12 46 -33 46 -12 0
-34 12 -49 27 -16 15 -40 28 -54 28 -15 1 -36 15 -53 36 -26 30 -35 34 -82 36
-30 1 -84 5 -122 9 l-67 6 -48 -48 c-26 -27 -55 -60 -65 -74 -16 -24 -17 -25
-32 -6 -21 27 -19 34 13 41 30 6 122 87 122 107 0 7 12 36 25 63 26 53 32 90
15 100 -16 10 -11 37 12 62 41 44 34 177 -13 237 -12 15 -43 37 -69 50 l-47
23 -24 -35 c-13 -19 -41 -46 -64 -60 -22 -14 -58 -38 -80 -54 -40 -30 -40 -30
5 12 25 23 62 50 83 61 20 11 37 23 37 27 0 4 10 20 23 35 22 28 22 28 55 12
18 -9 37 -15 43 -13 6 2 91 159 188 348 140 271 190 357 230 402 57 62 71 97
71 171 l0 49 -102 -99 c-173 -166 -166 -158 -179 -222 -10 -52 -14 -58 -35
-58 -32 0 -55 -22 -122 -113 -109 -146 -237 -364 -295 -503 -32 -76 -55 -141
-52 -146 3 -5 -17 -22 -45 -37 -27 -15 -50 -30 -50 -33 0 -3 10 -22 23 -41 20
-31 22 -47 20 -140 -1 -103 -13 -160 -33 -160 -6 0 -6 9 0 24 16 43 23 188 11
233 -14 51 -63 96 -147 133 -34 16 -70 40 -79 54 -9 13 -29 28 -45 31 -29 6
-63 35 -42 35 6 0 14 -4 17 -10 3 -5 14 -10 24 -10 9 0 30 -14 47 -31 24 -26
84 -66 84 -57 0 2 -7 25 -15 52 -19 62 -19 196 0 301 8 43 12 81 10 83 -13 13
-59 -62 -79 -127 l-23 -76 -7 37 c-12 63 63 219 147 306 23 23 36 42 31 42
-18 0 -139 -131 -168 -182 -15 -27 -29 -48 -31 -48 -2 0 -18 46 -35 103 -18
56 -50 138 -73 181 -41 80 -125 181 -170 205 -14 7 -30 24 -35 36 -6 13 -20
26 -30 29 -11 4 -25 20 -32 37 -7 16 -26 39 -42 50 l-29 21 6 -29 c9 -36 33
-91 56 -123 24 -34 139 -401 139 -444 0 -113 57 -276 119 -344 l30 -32 -53 0
c-46 0 -56 -4 -83 -33 -16 -17 -33 -40 -37 -51 -8 -23 28 -83 55 -91 18 -6 19
-9 6 -23 -8 -10 -21 -36 -27 -58 -11 -37 -10 -51 10 -115 34 -114 83 -202 135
-244 29 -25 52 -36 64 -32 11 3 21 1 23 -4 5 -13 105 -14 121 -1 11 9 18 8 32
-8 15 -16 16 -22 5 -36 -12 -14 -15 -13 -30 7 -10 13 -20 18 -24 11 -6 -10
-75 -6 -106 5 -8 4 -23 5 -33 4 -22 -3 -91 51 -113 87 -13 23 -23 27 -62 29
-41 1 -50 -2 -87 -38 -22 -22 -66 -63 -97 -92 -68 -63 -82 -101 -48 -129 12
-10 33 -18 46 -18 18 0 23 -5 21 -22 -2 -26 14 -35 131 -73 162 -52 344 -44
387 18 13 19 16 20 30 6 14 -14 11 -22 -30 -83 -60 -90 -61 -126 -4 -193 64
-74 91 -85 143 -58 59 31 116 7 116 -49 0 -30 33 -76 54 -76 5 0 21 -11 38
-25 16 -14 41 -25 55 -25 34 0 93 60 93 94 0 19 5 26 20 26 30 0 39 35 36 143
-2 69 -7 102 -19 121 -10 14 -15 26 -12 26 2 0 40 -10 82 -22 65 -18 101 -22
213 -21 115 1 152 5 251 31 197 51 364 129 519 242 36 26 85 58 110 70 25 13
61 36 81 51 20 16 48 29 62 29 16 0 34 11 49 29 13 15 35 36 51 46 27 17 36
48 17 60 -5 3 -10 14 -10 25 0 10 -7 21 -16 24 -14 5 -13 10 5 39 74 111 154
313 185 469 71 346 18 743 -140 1061 -24 49 -44 93 -44 97 0 5 13 7 29 4 36
-7 49 12 55 83 3 33 -2 61 -15 92 -10 24 -19 54 -19 67 0 17 -7 25 -25 30 -14
3 -25 10 -25 14 0 4 -12 19 -27 34 -14 14 -23 29 -20 32 3 4 21 -9 39 -27 18
-19 42 -38 53 -44 12 -6 22 -25 26 -45 3 -19 11 -45 17 -57 7 -12 12 -42 12
-67 0 -52 7 -56 38 -23 54 58 50 215 -9 281 -14 17 -28 40 -30 51 -5 25 -67
56 -124 63 -37 4 -47 1 -70 -22 l-27 -27 20 -22 c11 -12 25 -34 31 -49 16 -41
-6 -35 -23 7 -9 22 -23 36 -38 39 -13 3 -34 7 -48 10 -14 2 -45 12 -70 21 -42
16 -71 15 -113 -1 -16 -6 -15 -2 5 18 12 14 36 47 52 72 23 38 27 55 23 87 -4
32 -2 41 15 50 47 25 65 156 29 215 -11 18 -36 44 -56 59 l-36 28 -28 -27
c-16 -15 -56 -40 -91 -57 -34 -16 -74 -38 -89 -48 -14 -10 -43 -24 -63 -30
-21 -7 -40 -16 -42 -20 -3 -4 2 -26 10 -50 9 -26 12 -57 8 -81 -10 -59 -23
-49 -17 13 4 46 1 57 -26 97 -16 25 -48 56 -70 68 -22 13 -57 43 -77 67 -20
25 -41 45 -47 45 -5 0 -15 8 -22 17 -11 14 -17 15 -38 6 -18 -8 -36 -9 -66 -1
-38 10 -45 8 -81 -17 -22 -15 -42 -36 -45 -46 -7 -21 18 -74 41 -87 14 -8 14
-10 -1 -22 -14 -11 -29 -12 -88 -2 -382 64 -757 21 -1094 -125 -7 -3 -13 2
-13 10 0 8 -9 17 -20 20 -24 6 -60 -27 -60 -54 0 -10 -4 -20 -9 -24 -14 -8 -1
65 15 93 8 12 20 22 27 22 32 0 97 107 97 160 0 10 8 25 18 32 21 15 29 106
12 138 -15 29 -54 25 -80 -7z m1610 -537 c-6 -20 -16 -39 -22 -42 -10 -6 -6
11 14 65 14 37 21 17 8 -23z m240 -124 c0 -11 -49 -57 -54 -51 -2 2 -7 14 -10
26 -5 16 -2 23 11 26 31 8 53 7 53 -1z m24 -2072 c12 0 45 -7 73 -15 40 -12
56 -23 72 -50 11 -19 16 -35 10 -35 -5 0 -14 10 -20 23 -23 51 -121 76 -202
52 -28 -8 -52 -15 -54 -15 -11 0 2 21 34 58 l36 42 15 -30 c10 -20 22 -30 36
-30z m270 -3 c18 -26 18 -29 3 -45 -22 -22 -29 -12 -34 50 -2 29 0 46 4 38 5
-8 17 -28 27 -43z m53 -79 c-3 -8 -6 -5 -6 6 -1 11 2 17 5 13 3 -3 4 -12 1
-19z"/>
<path d="M5232 4618 c-35 -9 -72 -58 -72 -94 0 -56 76 -55 95 1 5 17 14 33 20
37 21 16 72 7 135 -23 l65 -30 -28 29 c-34 35 -110 77 -152 84 -16 3 -45 1
-63 -4z"/>
<path d="M8506 4559 c-23 -18 -56 -67 -56 -84 0 -3 14 10 31 30 28 32 69 48
69 26 0 -16 28 -20 46 -7 16 12 16 14 -4 34 -28 28 -52 28 -86 1z"/>
<path d="M10113 4539 c-49 -14 -73 -52 -73 -114 0 -58 27 -105 61 -105 29 0
24 33 -13 85 -42 59 -33 93 29 114 89 31 157 -17 156 -109 -1 -72 -41 -133
-113 -174 -53 -30 -59 -31 -177 -31 -80 0 -113 -3 -95 -8 15 -5 68 -9 117 -10
74 -1 99 2 140 21 94 43 144 114 145 205 0 65 -20 101 -70 121 -45 18 -60 19
-107 5z"/>
<path d="M5990 4511 c-71 -10 -146 -43 -189 -84 -38 -36 -71 -100 -70 -137 0
-19 4 -16 16 18 22 62 96 134 168 162 49 19 80 24 165 24 101 1 107 0 167 -33
188 -102 277 -297 291 -641 l7 -155 23 64 c21 55 23 73 17 145 -20 234 -127
461 -263 561 -89 66 -208 93 -332 76z"/>
<path d="M8036 4414 c-4 -9 -2 -22 4 -29 16 -20 2 -42 -43 -65 l-42 -21 40 6
c71 11 104 47 91 101 -7 28 -40 33 -50 8z"/>
<path d="M10315 4375 c-14 -13 -25 -30 -25 -37 0 -7 7 -2 16 11 14 19 22 22
50 16 26 -4 34 -2 34 8 0 14 -20 27 -41 27 -6 0 -21 -11 -34 -25z"/>
<path d="M8601 4350 c-57 -12 -105 -45 -130 -91 -30 -53 -26 -58 9 -10 40 54
78 76 155 91 87 16 154 -3 223 -65 85 -77 127 -190 139 -373 3 -61 10 -98 14
-90 12 19 11 7 -6 -59 -42 -160 9 -401 109 -520 31 -37 33 -46 7 -38 -31 10
-39 -49 -12 -86 12 -15 21 -35 21 -43 0 -9 15 -23 33 -32 17 -9 42 -25 54 -36
27 -25 93 -34 124 -17 22 11 23 11 10 -4 -15 -19 -66 -22 -105 -7 -21 8 -32 4
-68 -23 -49 -37 -56 -64 -34 -119 18 -43 53 -55 114 -38 41 10 83 50 118 109
10 17 24 31 31 31 22 0 14 -18 -16 -39 -58 -42 -61 -130 -6 -151 25 -10 25
-10 10 -41 -21 -39 -13 -79 16 -79 27 0 45 48 48 132 2 48 -2 74 -14 91 -10
16 -14 34 -9 51 9 39 20 39 16 0 -4 -29 -1 -34 16 -34 33 0 48 27 34 63 -6 17
-10 32 -8 35 2 2 30 -3 63 -11 32 -8 62 -12 68 -9 5 3 -14 -16 -43 -44 -37
-34 -54 -57 -55 -76 -1 -17 -10 -31 -24 -37 -23 -11 -28 -26 -17 -55 8 -20 91
-59 105 -50 6 3 34 8 61 10 59 4 83 22 99 73 6 20 15 40 20 46 5 5 2 -11 -6
-37 -9 -25 -26 -55 -39 -67 l-23 -22 33 -62 c19 -34 34 -70 34 -79 0 -19 41
-25 75 -12 20 8 45 56 45 88 0 14 5 28 10 31 6 3 10 23 10 44 l0 39 57 -23
c31 -13 61 -21 66 -18 5 3 28 6 52 7 71 2 152 81 113 110 -8 6 -17 19 -21 29
-3 9 -16 17 -27 17 -11 0 -20 4 -20 10 0 5 -11 12 -25 16 -13 3 -29 12 -36 20
-6 8 -22 14 -35 14 -13 0 -24 4 -24 10 0 22 89 98 140 119 137 58 321 162 299
169 -8 3 -22 11 -31 20 -16 14 -23 12 -69 -16 -54 -34 -78 -38 -127 -21 -27 9
-31 16 -34 52 -3 37 -6 42 -28 42 -27 0 -37 -26 -26 -70 7 -26 60 -55 103 -55
24 0 18 -6 -42 -39 -86 -48 -117 -58 -109 -37 3 8 0 24 -6 36 -10 19 -17 21
-48 15 -21 -4 -44 -13 -53 -21 -20 -18 -33 -18 -49 1 -16 19 -60 19 -88 -1
-18 -12 -22 -25 -22 -65 l0 -51 -25 31 c-34 40 -103 65 -181 65 -82 0 -92 -10
-71 -65 9 -24 15 -44 14 -46 -2 -1 -27 4 -55 12 -38 12 -56 23 -66 44 -17 32
-67 94 -138 169 -36 38 -54 50 -61 43 -8 -8 -4 -18 11 -34 13 -14 22 -36 22
-54 0 -23 8 -38 28 -53 15 -11 38 -30 52 -41 l25 -20 -34 18 c-88 48 -210 178
-264 282 -50 95 -67 161 -67 263 0 109 12 159 60 263 64 139 182 270 292 326
22 11 38 23 35 26 -10 9 -127 -68 -189 -125 -63 -59 -127 -145 -157 -213 l-18
-40 -6 76 c-7 82 -45 209 -80 265 -81 131 -206 189 -346 160z m1169 -1435 c0
-8 -4 -15 -9 -15 -13 0 -22 16 -14 24 11 11 23 6 23 -9z m217 -11 c-3 -3 -12
-4 -19 -1 -8 3 -5 6 6 6 11 1 17 -2 13 -5z m-83 -129 c7 -30 7 -30 -9 -7 -9
12 -13 27 -10 33 9 13 11 11 19 -26z"/>
<path d="M5952 4298 c-33 -33 1 -65 57 -53 39 8 85 -16 101 -54 18 -46 15
-125 -6 -162 -26 -43 -86 -73 -159 -77 -85 -5 -117 18 -173 128 -24 47 -40 72
-36 55 20 -84 72 -163 125 -190 67 -35 178 -8 235 57 60 69 65 165 12 240 -39
55 -125 87 -156 56z"/>
<path d="M10013 4274 c4 -21 -1 -29 -27 -45 -33 -20 -24 -25 18 -9 44 16 59
80 19 80 -11 0 -14 -7 -10 -26z"/>
<path d="M9568 4273 c7 -3 16 -2 19 1 4 3 -2 6 -13 5 -11 0 -14 -3 -6 -6z"/>
<path d="M9623 4273 c9 -2 25 -2 35 0 9 3 1 5 -18 5 -19 0 -27 -2 -17 -5z"/>
<path d="M9727 4250 c29 -12 77 -44 107 -71 l54 -50 -24 -24 c-24 -24 -32 -69
-14 -80 5 -3 9 -16 8 -28 -1 -12 2 -32 6 -44 6 -19 2 -22 -44 -28 -27 -4 -50
-10 -50 -13 0 -4 -14 -13 -30 -20 -33 -15 -60 -57 -60 -94 0 -32 32 -44 118
-43 39 0 73 -4 75 -10 2 -5 -2 -20 -9 -34 -22 -42 9 -131 45 -131 19 1 42 18
57 45 8 14 19 19 38 17 32 -4 66 22 66 50 0 10 -8 31 -17 45 -18 26 -17 27 2
18 56 -24 140 -13 192 24 32 23 28 45 -16 80 -46 36 -52 37 -76 11 -10 -11
-23 -20 -29 -20 -6 0 -1 7 11 15 29 20 57 97 50 135 -4 17 -2 30 3 30 15 0 12
36 -3 48 -21 18 -74 18 -94 0 -10 -8 -31 -22 -48 -31 -28 -14 -31 -13 -70 17
-66 51 -148 143 -133 150 9 4 9 5 -2 4 -8 -1 -37 8 -64 20 -28 13 -61 25 -75
28 -14 2 -2 -5 26 -16z m280 -322 c-3 -8 -6 -5 -6 6 -1 11 2 17 5 13 3 -3 4
-12 1 -19z m-87 -40 c0 -6 -6 -5 -15 2 -8 7 -15 14 -15 16 0 2 7 1 15 -2 8 -4
15 -11 15 -16z m165 -48 c-32 -7 -48 -3 -41 9 3 4 20 5 38 2 l33 -5 -30 -6z"/>
<path d="M9420 4240 c-8 -5 -10 -10 -5 -10 6 0 17 5 25 10 8 5 11 10 5 10 -5
0 -17 -5 -25 -10z"/>
<path d="M8601 4206 c-19 -22 -5 -36 37 -36 48 0 60 -9 72 -50 19 -66 -14
-122 -83 -141 -58 -15 -94 -3 -128 43 -16 23 -29 47 -29 54 0 7 -5 16 -11 19
-23 15 24 -72 56 -102 26 -25 44 -33 71 -33 79 0 134 51 142 130 4 43 1 51
-29 84 -40 41 -79 55 -98 32z"/>
<path d="M3374 4189 c-17 -5 -37 -16 -44 -24 -7 -8 -18 -15 -24 -15 -24 0 -59
-50 -72 -101 -8 -28 -11 -55 -9 -59 3 -4 18 -10 35 -12 24 -4 36 2 61 30 30
33 34 34 86 29 74 -8 125 -35 138 -72 16 -49 68 -75 81 -40 4 8 24 18 45 21
21 4 39 10 39 14 0 13 -64 49 -99 56 -25 5 -33 13 -41 43 -5 20 -10 39 -10 43
0 12 -64 75 -87 87 -25 13 -55 13 -99 0z"/>
<path d="M10197 4183 c-10 -10 -8 -71 2 -78 5 -3 12 -19 16 -35 4 -17 20 -40
36 -52 16 -12 29 -31 29 -42 0 -20 0 -20 -15 0 -15 19 -15 19 -30 0 -14 -18
-13 -23 17 -53 18 -18 39 -33 47 -33 8 0 23 -8 34 -17 24 -22 209 -103 220
-96 11 7 -12 33 -29 33 -8 0 -19 11 -24 25 -5 13 -20 27 -32 29 -13 3 -32 7
-43 9 -41 9 62 6 118 -3 32 -5 64 -7 72 -3 25 9 17 41 -17 64 -18 13 -35 26
-38 30 -3 3 -32 10 -65 14 -33 5 -52 10 -43 12 20 5 42 38 52 75 5 23 1 33
-25 55 -48 43 -107 22 -140 -51 -16 -36 -18 -38 -18 -15 -1 31 -29 59 -59 59
-17 0 -22 6 -22 28 0 37 -25 63 -43 45z m133 -197 c0 -15 -18 -31 -26 -23 -7
7 7 37 17 37 5 0 9 -6 9 -14z m89 -9 c-2 -1 -14 -11 -26 -21 -13 -11 -23 -16
-23 -13 0 10 31 37 42 37 6 0 9 -1 7 -3z"/>
<path d="M11761 4045 c-93 -79 -42 -214 111 -287 80 -39 87 -35 26 15 -59 48
-98 100 -98 130 0 12 12 33 26 48 33 34 35 76 4 101 -29 23 -33 23 -69 -7z"/>
<path d="M3945 4008 c-11 -6 -29 -13 -40 -14 -86 -9 -110 -15 -137 -32 -31
-20 -31 -20 -9 -32 18 -9 27 -8 46 4 26 17 82 21 104 7 21 -13 7 -51 -39 -108
-22 -28 -40 -54 -40 -58 0 -10 151 145 183 188 l28 37 -26 10 c-33 13 -45 12
-70 -2z"/>
<path d="M9156 3919 c-51 -32 -58 -49 -10 -24 46 24 93 20 104 -9 11 -30 23
-38 44 -30 22 9 20 50 -4 74 -29 29 -78 25 -134 -11z"/>
<path d="M11955 3920 c-4 -18 -1 -42 8 -62 9 -18 24 -54 36 -80 12 -29 30 -52
45 -59 15 -7 28 -23 31 -41 8 -36 0 -49 -9 -13 -4 16 -13 25 -26 25 -11 0 -20
-4 -20 -10 0 -5 -35 3 -77 19 -131 48 -289 74 -443 75 -74 0 -167 -6 -207 -13
-87 -15 -100 -10 -72 28 23 31 16 61 -18 77 -26 12 -116 11 -130 -1 -6 -5 -31
-27 -55 -49 -101 -90 -98 -86 -99 -140 0 -44 -2 -48 -10 -26 -9 23 -7 46 7 84
4 11 -3 19 -23 28 -15 7 -44 22 -63 34 -19 11 -46 25 -59 29 -14 4 -32 16 -41
27 -14 17 -19 18 -43 7 -58 -26 -76 -122 -35 -175 13 -16 21 -39 20 -53 -2
-16 8 -40 23 -60 29 -40 32 -53 10 -44 -9 3 -35 -1 -58 -10 -23 -8 -54 -18
-69 -21 -15 -3 -30 -15 -33 -26 -3 -11 -10 -20 -15 -20 -5 0 -4 11 2 25 7 17
24 29 50 35 41 12 44 20 27 68 -13 38 -83 82 -129 82 -39 0 -84 -44 -93 -90
-4 -20 -12 -30 -25 -30 -21 0 -62 -27 -62 -41 0 -5 9 -9 19 -9 11 0 23 -4 26
-10 13 -20 45 -10 56 17 10 28 26 43 44 43 5 0 -1 -7 -13 -16 -12 -8 -22 -20
-22 -25 0 -6 -9 -22 -19 -36 -25 -31 -36 -103 -22 -143 5 -17 6 -28 1 -25 -16
10 -23 74 -12 116 9 37 8 41 -14 56 -18 11 -36 13 -70 8 -29 -4 -50 -2 -59 5
-18 15 -59 -5 -48 -23 55 -87 141 -172 201 -200 27 -13 32 -8 43 40 12 57 33
113 42 113 4 0 19 12 32 28 13 15 25 22 25 15 0 -6 -12 -22 -27 -35 -64 -54
-80 -198 -22 -198 13 0 19 -5 16 -12 -3 -7 -23 -53 -45 -103 -73 -165 -87
-243 -86 -460 0 -177 2 -196 27 -280 15 -49 47 -129 71 -178 44 -86 45 -88 28
-116 -16 -29 -16 -30 20 -65 20 -20 46 -36 56 -36 11 0 25 -7 33 -16 7 -8 31
-25 53 -36 23 -11 68 -40 101 -63 217 -153 503 -214 694 -148 13 5 14 3 4 -8
-19 -19 -18 -178 1 -185 8 -3 19 -18 26 -33 6 -16 23 -34 37 -40 21 -10 31 -8
61 10 46 28 62 47 62 76 0 29 39 40 79 23 35 -14 57 -5 95 41 34 40 33 74 -4
129 -20 30 -26 48 -19 55 7 7 12 6 17 -1 28 -43 159 -47 273 -8 54 18 79 32
82 45 3 11 14 19 26 19 12 0 24 6 27 14 8 20 -21 72 -53 93 -14 10 -38 30 -54
46 -36 36 -90 38 -108 4 -15 -28 -67 -61 -81 -52 -6 3 -10 2 -10 -3 0 -5 -19
-8 -42 -7 -24 1 -46 -2 -49 -7 -4 -6 -12 -7 -18 -3 -19 11 8 37 31 29 38 -12
116 7 144 34 30 30 67 104 85 173 10 38 10 50 -4 77 -15 31 -15 33 9 57 31 31
30 40 -6 77 -23 23 -38 29 -58 26 l-28 -4 33 49 c36 54 50 96 59 177 7 63 80
308 98 330 18 22 47 100 37 100 -4 0 -27 -22 -50 -50 -23 -27 -67 -73 -97
-102 -59 -56 -101 -132 -130 -236 l-18 -63 -27 43 c-15 24 -46 61 -70 83 l-43
40 34 -40 c45 -53 92 -157 88 -192 -4 -26 -5 -25 -16 14 -7 24 -24 55 -37 70
l-25 28 4 -30 c2 -16 1 -24 -1 -17 -3 7 -9 10 -14 7 -10 -7 -12 -215 -2 -242
5 -14 10 -8 20 27 l13 45 -5 -42 c-6 -47 2 -53 30 -23 24 26 78 54 72 37 -2
-7 -12 -14 -23 -15 -10 -2 -29 -13 -42 -25 -12 -12 -42 -31 -65 -42 -23 -12
-53 -37 -65 -56 -21 -30 -23 -41 -18 -101 3 -36 9 -73 12 -82 3 -9 2 -16 -4
-16 -24 0 -29 157 -6 202 13 26 14 32 3 39 -34 19 -48 38 -69 94 -40 103 -86
188 -170 314 -82 122 -111 154 -136 144 -8 -3 -14 1 -15 8 -2 36 -6 56 -15 71
-9 17 -168 168 -177 168 -4 0 -1 -31 9 -78 2 -12 20 -39 38 -60 18 -20 89
-144 157 -275 95 -183 127 -236 139 -231 39 16 50 12 13 -5 -71 -33 -99 -106
-67 -177 10 -21 16 -55 15 -74 -1 -19 5 -49 13 -65 18 -34 21 -59 6 -50 -5 3
-44 3 -86 -1 -64 -6 -80 -11 -100 -33 -13 -14 -24 -21 -24 -14 0 6 11 21 24
34 18 18 34 23 60 21 34 -3 36 -2 36 27 0 62 -41 118 -108 146 -52 22 -117
-13 -141 -78 -8 -19 -18 -27 -35 -27 -29 0 -76 -19 -76 -32 0 -4 7 -8 15 -8 8
0 23 -9 34 -21 19 -21 61 -20 61 2 0 5 9 18 20 29 35 35 160 25 160 -14 0 -5
-8 -2 -18 7 -12 11 -36 17 -69 17 -48 0 -52 -2 -91 -49 -51 -60 -62 -88 -62
-151 0 -33 6 -55 20 -71 l19 -24 1 27 c0 36 49 128 74 139 12 5 31 16 44 25
12 9 22 12 22 7 0 -4 -18 -20 -40 -35 -49 -31 -90 -104 -90 -157 0 -37 23 -72
37 -57 3 3 15 -2 26 -11 11 -10 37 -19 61 -19 22 -1 74 -4 115 -7 77 -6 102 1
131 34 17 20 67 38 56 20 -4 -6 -13 -11 -20 -11 -17 0 -46 -33 -46 -52 0 -38
-212 -63 -322 -39 -56 13 -180 57 -230 82 -28 15 -35 23 -31 39 4 16 -1 23
-25 32 -19 8 -35 23 -41 39 -10 29 -57 49 -115 49 -16 0 -27 3 -24 6 4 3 57 0
120 -7 62 -7 124 -13 139 -14 16 -1 42 -20 74 -54 30 -32 52 -48 58 -42 5 5 2
19 -9 36 -21 32 -21 98 0 149 15 35 14 39 -3 58 -15 15 -33 20 -76 22 -34 0
-59 6 -64 14 -5 8 -19 12 -32 10 -20 -2 -24 -8 -21 -33 2 -23 0 -26 -8 -15 -5
8 -10 25 -10 38 0 18 5 22 32 22 17 0 39 -7 48 -15 10 -9 25 -13 34 -9 26 10
3 29 -57 49 -54 18 -87 40 -87 60 0 15 -55 55 -75 55 -46 0 -108 -56 -123
-110 l-10 -35 -7 32 c-9 40 -39 68 -74 68 -24 0 -26 4 -29 42 -2 30 -9 46 -23
53 -23 13 -39 5 -39 -18 -1 -15 -2 -15 -11 1 -53 91 -76 370 -44 527 21 104
56 203 102 293 29 55 40 67 62 69 14 1 40 3 56 5 17 2 54 5 84 6 46 3 58 8 81
34 16 17 39 37 52 43 15 8 12 3 -10 -15 -25 -21 -31 -31 -26 -51 4 -14 1 -31
-6 -39 -9 -11 -11 -35 -6 -81 6 -60 11 -70 49 -110 23 -24 49 -44 58 -44 28 0
89 63 89 92 0 34 23 47 71 41 34 -5 39 -2 63 33 35 52 33 82 -9 131 -19 22
-32 43 -29 45 2 3 21 0 42 -7 27 -9 53 -10 95 -4 61 10 192 73 192 92 0 7 10
18 23 25 40 23 23 59 -46 98 -26 15 -54 34 -63 41 -25 21 -65 6 -88 -32 -20
-35 -66 -62 -114 -68 -16 -2 -32 -9 -36 -16 -6 -9 -11 -8 -21 4 -18 21 -7 29
43 30 92 2 138 56 159 188 14 91 2 86 218 94 178 6 283 -8 441 -58 80 -25 105
-38 143 -75 26 -24 53 -44 60 -44 26 0 138 -83 176 -131 163 -206 216 -510
150 -853 -12 -59 -18 -116 -15 -127 10 -31 55 -21 82 19 37 56 48 132 48 337
0 167 -3 201 -24 280 -25 98 -80 224 -129 295 -35 50 -29 59 18 35 22 -11 36
-13 42 -7 15 15 1 31 -35 40 -25 6 -33 14 -35 36 -4 30 -10 34 -91 52 l-56 13
80 -5 c44 -3 106 -10 137 -15 31 -5 68 -7 81 -4 19 5 23 11 19 36 -4 28 -25
48 -96 91 -6 3 -45 12 -86 19 -49 9 -67 15 -52 19 30 7 64 66 66 112 0 31 -5
43 -34 67 -42 36 -54 37 -105 8 -48 -27 -85 -79 -86 -121 -1 -29 -2 -29 -12
11 -14 47 -43 84 -66 82 -34 -3 -41 2 -41 32 0 43 -17 69 -45 69 -18 0 -25 -7
-30 -30z m185 -240 c0 -23 -4 -30 -20 -30 -24 0 -25 8 -4 38 20 29 24 28 24
-8z m120 -11 c-14 -5 -33 -20 -42 -32 -17 -21 -26 -14 -10 9 10 15 44 33 62
33 8 0 4 -5 -10 -10z m-1310 -123 c0 -18 -17 8 -24 34 l-7 25 15 -25 c9 -14
15 -29 16 -34z m-406 -2 c22 -21 20 -31 -1 -12 -10 9 -27 18 -38 21 -19 4 -18
5 2 6 12 0 29 -6 37 -15z m266 -69 c0 -8 -4 -15 -9 -15 -5 0 -14 7 -21 15 -10
13 -9 15 9 15 12 0 21 -6 21 -15z m997 -952 c-3 -10 -5 -4 -5 12 0 17 2 24 5
18 2 -7 2 -21 0 -30z m-224 -128 c20 -14 37 -28 37 -31 0 -3 -12 3 -27 14 -16
10 -37 24 -48 30 -11 6 -15 12 -10 12 6 0 27 -11 48 -25z m-754 -329 c-2 -1
-26 3 -54 10 -27 7 -40 13 -28 13 12 1 24 10 28 21 6 19 8 18 32 -10 14 -17
24 -32 22 -34z m-248 -9 c-18 -18 -25 1 -11 30 l14 28 4 -24 c2 -13 -1 -28 -7
-34z m119 12 c-14 -5 -33 -20 -43 -32 l-18 -22 10 22 c12 25 38 43 61 42 8 0
4 -5 -10 -10z m836 -39 c17 0 18 -14 2 -27 -10 -7 -22 2 -47 36 l-34 45 32
-27 c18 -15 39 -27 47 -27z"/>
<path d="M5211 3872 c-18 -34 9 -67 56 -70 54 -4 68 -34 60 -135 l-5 -72 21
45 c12 26 23 73 25 112 4 66 4 68 -31 103 -29 29 -42 35 -76 35 -29 0 -43 -5
-50 -18z"/>
<path d="M59 3807 c-71 -38 -77 -102 -14 -143 37 -24 79 -21 121 8 31 22 41
25 65 16 16 -5 43 -27 59 -48 34 -43 94 -168 105 -217 12 -57 23 -45 18 19
-10 144 -44 244 -105 313 -23 26 -57 54 -75 61 -50 22 -123 17 -174 -9z"/>
<path d="M10081 3531 c-10 -7 4 -26 59 -82 46 -47 61 -59 41 -33 -17 23 -31
49 -31 57 0 19 45 30 70 17 23 -12 50 -13 50 -1 0 12 -23 20 -100 37 -76 16
-71 16 -89 5z"/>
<path d="M9215 3448 c-33 -17 -45 -40 -45 -80 0 -33 22 -108 32 -108 2 0 3 28
3 62 0 60 1 63 25 66 32 5 50 20 50 42 0 28 -31 37 -65 18z"/>
<path d="M12653 3409 c-66 -19 -119 -117 -129 -239 l-5 -65 20 53 c29 78 69
142 97 154 19 9 31 8 57 -7 42 -22 83 -14 99 20 13 29 6 49 -24 68 -32 20 -77
26 -115 16z"/>
<path d="M12073 3354 c-32 -7 -81 -68 -89 -109 -5 -27 -2 -41 11 -55 39 -43
105 -8 105 55 0 24 6 38 19 45 37 19 133 9 226 -24 l20 -8 -20 17 c-63 54
-202 94 -272 79z"/>
<path d="M1740 2930 c-19 -12 34 -12 100 -1 45 8 45 9 -20 10 -36 0 -72 -4
-80 -9z"/>
<path d="M11568 2803 c12 -2 32 -2 45 0 12 2 2 4 -23 4 -25 0 -35 -2 -22 -4z"/>
<path d="M1482 2553 c-7 -43 -12 -101 -12 -129 0 -65 30 -202 40 -183 14 26
22 305 10 348 -6 23 -14 41 -19 41 -4 0 -13 -35 -19 -77z"/>
<path d="M2295 2131 c-22 -10 -50 -30 -62 -45 -13 -14 -28 -26 -33 -26 -20 0
-50 -83 -50 -137 l0 -53 39 0 c36 0 42 4 63 42 27 48 59 62 128 53 79 -11 107
-24 124 -59 8 -18 27 -38 41 -44 23 -11 29 -9 49 13 13 14 38 30 55 36 17 6
31 15 31 20 0 14 -41 32 -100 44 -53 11 -56 14 -71 55 -9 24 -22 46 -30 49 -7
2 -20 13 -29 24 -15 18 -82 47 -105 46 -5 0 -28 -9 -50 -18z"/>
<path d="M2289 1938 c-9 -7 -24 -25 -34 -40 -14 -23 -15 -28 -3 -28 18 0 58
-41 58 -59 0 -9 8 -11 25 -7 20 5 32 0 56 -23 16 -16 41 -31 56 -33 21 -2 29
-10 33 -34 4 -16 19 -48 33 -69 15 -22 27 -49 27 -60 0 -11 3 -30 6 -43 5 -18
9 -20 21 -10 68 56 50 235 -32 318 -19 19 -45 48 -59 65 -22 27 -30 30 -97 33
-51 2 -79 -1 -90 -10z"/>
</g>
</svg>
